#!OML:ASF E:\motion texture\Top Level 1\Subject 1\Session 1\male.ASF
:FULLY-SPECIFIED
:DEGREES
96
root 20.9086 17.6311 5.15311 -254.271 -80.4699 262.683
lowerback -1.36833 2.05104 7.61513
upperback -1.6529 2.60591 3.01286
thorax -0.739622 1.20179 -1.12842
lowerneck -13.4703 -4.30795 -6.43463
upperneck 9.01572 -4.81525 1.86459
head 5.10774 -2.45909 1.21251
rclavicle 7.31155e-015 -3.97569e-015
rhumerus -14.8503 23.1935 -76.1375
rradius 85.5231
rwrist -14.3141
rhand -15.7962 -37.7851
rfingers 7.12502
rthumb 10.3968 -67.5081
lclavicle 7.31155e-015 -3.97569e-015
lhumerus -22.4444 -15.2184 93.6025
lradius 69.6552
lwrist -3.82771
lhand -18.5221 29.7499
lfingers 7.12502
lthumb 7.76647 59.5872
rfemur -0.322138 3.92542 33.3278
rtibia 20.7841
rfoot -16.6598 -9.62276
rtoes -3.65745
lfemur -31.7941 -2.58247 -3.61285
ltibia 15.2219
lfoot -5.99577 6.90013
ltoes -16.6269
97
root 20.7498 17.617 5.1626 -255.623 -80.4872 264.041
lowerback -1.35876 2.13044 7.53427
upperback -1.65828 2.71526 2.98366
thorax -0.744474 1.25753 -1.11265
lowerneck -13.5726 -4.34914 -6.56994
upperneck 8.85678 -4.82001 1.71665
head 5.07467 -2.47419 1.18656
rclavicle -2.75193e-015 3.27995e-015
rhumerus -16.2929 22.6536 -76.9293
rradius 88.3073
rwrist -14.5398
rhand -16.1534 -36.907
rfingers 7.12502
rthumb 10.0521 -66.6469
lclavicle -2.75193e-015 3.27995e-015
lhumerus -23.5216 -15.756 94.1118
lradius 71.3194
lwrist -4.3001
lhand -18.5175 28.4199
lfingers 7.12502
lthumb 7.77088 58.2571
rfemur -0.163548 3.80885 33.3554
rtibia 21.53
rfoot -16.7779 -9.7663
rtoes -4.93349
lfemur -31.9024 -2.64889 -3.8773
ltibia 16.2216
lfoot -5.33794 6.68234
ltoes -16.4031
98
root 20.5893 17.6042 5.17211 -257.123 -80.5587 265.526
lowerback -1.34689 2.19982 7.38166
upperback -1.66071 2.8126 2.9485
thorax -0.751539 1.30838 -1.06377
lowerneck -13.6566 -4.37083 -6.6776
upperneck 8.73653 -4.79882 1.50861
head 5.04752 -2.48029 1.13976
rclavicle -1.23246e-014 -1.37161e-014
rhumerus -17.7325 22.1021 -77.7261
rradius 91.1886
rwrist -14.6906
rhand -16.597 -36.1224
rfingers 7.12502
rthumb 9.62415 -65.8826
lclavicle -1.23246e-014 -1.37161e-014
lhumerus -24.5352 -16.3843 94.6297
lradius 72.9945
lwrist -4.93975
lhand -18.6799 27.0109
lfingers 7.12502
lthumb 7.61416 56.8538
rfemur -0.0214572 3.68264 33.3279
rtibia 22.3437
rfoot -16.8362 -9.93353
rtoes -6.26852
lfemur -31.9705 -2.81331 -4.18015
ltibia 17.1315
lfoot -4.548 6.45898
ltoes -16.1926
99
root 20.4279 17.5937 5.18155 -258.871 -80.7149 267.246
lowerback -1.33799 2.25404 7.13224
upperback -1.6584 2.89113 2.89285
thorax -0.757156 1.35155 -0.982768
lowerneck -13.7242 -4.37783 -6.75776
upperneck 8.65053 -4.76008 1.25862
head 5.02608 -2.48028 1.07707
rclavicle -3.23646e-015 -1.90833e-014
rhumerus -19.1393 21.5251 -78.5358
rradius 94.1165
rwrist -14.6127
rhand -17.1076 -35.4084
rfingers 7.12502
rthumb 9.1315 -65.1907
lclavicle -3.23646e-015 -1.90833e-014
lhumerus -25.4592 -17.1006 95.1411
lradius 74.6475
lwrist -5.87482
lhand -18.99 25.5251
lfingers 7.12502
lthumb 7.31479 55.3787
rfemur 0.0864919 3.53756 33.2074
rtibia 23.2366
rfoot -16.8307 -10.12
rtoes -7.62389
lfemur -32.0235 -3.07787 -4.56177
ltibia 17.9582
lfoot -3.69847 6.20669
ltoes -15.9078
100
root 20.2657 17.5861 5.1907 -261.009 -80.961 269.348
lowerback -1.33965 2.2872 6.7845
upperback -1.6541 2.94247 2.8105
thorax -0.760355 1.38282 -0.874927
lowerneck -13.7621 -4.37129 -6.82313
upperneck 8.58412 -4.70697 0.992935
head 5.00478 -2.47423 1.00881
rclavicle -2.91344e-015 -1.42628e-014
rhumerus -20.5119 20.9129 -79.3636
rradius 97.057
rwrist -14.2205
rhand -17.6514 -34.6804
rfingers 7.12502
rthumb 8.60679 -64.485
lclavicle -2.91344e-015 -1.42628e-014
lhumerus -26.2845 -17.8888 95.6334
lradius 76.2638
lwrist -7.13553
lhand -19.3704 23.9572
lfingers 7.12502
lthumb 6.94762 53.8232
rfemur 0.139208 3.34803 32.9785
rtibia 24.2239
rfoot -16.7502 -10.3114
rtoes -9.00217
lfemur -32.0833 -3.42384 -5.04175
ltibia 18.7315
lfoot -2.8743 5.88815
ltoes -15.5123
101
root 20.1031 17.5818 5.20005 -263.655 -81.2734 271.955
lowerback -1.3482 2.30171 6.36951
upperback -1.64848 2.96974 2.69915
thorax -0.761975 1.40319 -0.759648
lowerneck -13.7764 -4.3591 -6.8878
upperneck 8.53855 -4.65018 0.74082
head 4.98653 -2.46578 0.945267
rclavicle -1.94095e-014 1.44119e-015
rhumerus -21.8397 20.2513 -80.2103
rradius 99.9822
rwrist -13.5093
rhand -18.2666 -33.8667
rfingers 7.12502
rthumb 8.01301 -63.6948
lclavicle -1.94095e-014 1.44119e-015
lhumerus -26.9947 -18.7438 96.0991
lradius 77.8299
lwrist -8.66868
lhand -19.756 22.3763
lfingers 7.12502
lthumb 6.57534 52.2542
rfemur 0.121684 3.0861 32.6483
rtibia 25.3211
rfoot -16.5883 -10.4782
rtoes -10.3178
lfemur -32.1529 -3.81572 -5.61808
ltibia 19.4902
lfoot -2.16328 5.44714
ltoes -14.86
102
root 19.9396 17.5807 5.20973 -266.968 -81.5989 275.226
lowerback -1.37155 2.29921 5.93742
upperback -1.64188 2.97344 2.56862
thorax -0.755724 1.41218 -0.653983
lowerneck -13.7618 -4.34641 -6.95808
upperneck 8.51517 -4.5968 0.512307
head 4.97151 -2.45796 0.890025
rclavicle 1.61295e-014 1.05356e-014
rhumerus -23.1131 19.5399 -81.0689
rradius 102.87
rwrist -12.5659
rhand -18.983 -32.8988
rfingers 7.12502
rthumb 7.3216 -62.7521
lclavicle 1.61295e-014 1.05356e-014
lhumerus -27.5869 -19.6608 96.5384
lradius 79.3468
lwrist -10.3508
lhand -20.0859 20.8477
lfingers 7.12502
lthumb 6.25692 50.7353
rfemur 0.025044 2.724 32.2567
rtibia 26.5397
rfoot -16.3353 -10.5954
rtoes -11.5647
lfemur -32.2289 -4.21589 -6.25634
ltibia 20.2777
lfoot -1.63862 4.84502
ltoes -13.822
103
root 19.7751 17.582 5.22031 -270.923 -81.8611 279.135
lowerback -1.4116 2.28634 5.56089
upperback -1.63525 2.96111 2.43479
thorax -0.738145 1.41245 -0.581571
lowerneck -13.7139 -4.33437 -7.03771
upperneck 8.51741 -4.54824 0.310655
head 4.96026 -2.45143 0.844608
rclavicle -1.81593e-014 -5.73991e-015
rhumerus -24.3244 18.8005 -81.9306
rradius 105.712
rwrist -11.5029
rhand -19.8132 -31.7528
rfingers 7.12502
rthumb 6.52014 -61.6324
lclavicle -1.81593e-014 -5.73991e-015
lhumerus -28.049 -20.6368 96.9527
lradius 80.8094
lwrist -12.0181
lhand -20.3151 19.4082
lfingers 7.12502
lthumb 6.03562 49.3022
rfemur -0.154326 2.25161 31.8663
rtibia 27.8864
rfoot -15.9725 -10.634
rtoes -12.6855
lfemur -32.2918 -4.57939 -6.89326
ltibia 21.1085
lfoot -1.30034 4.07996
ltoes -12.4231
104
root 19.6097 17.5848 5.23218 -275.331 -81.9986 283.482
lowerback -1.45626 2.26693 5.28761
upperback -1.63012 2.93802 2.31817
thorax -0.715967 1.40577 -0.548347
lowerneck -13.6288 -4.31858 -7.1289
upperneck 8.55301 -4.49739 0.126346
head 4.95413 -2.44363 0.807002
rclavicle -6.78023e-015 -4.69008e-016
rhumerus -25.4565 18.0708 -82.7779
rradius 108.49
rwrist -10.431
rhand -20.7263 -30.4658
rfingers 7.12502
rthumb 5.63861 -60.3708
lclavicle -6.78023e-015 -4.69008e-016
lhumerus -28.3927 -21.6557 97.3523
lradius 82.23
lwrist -13.5271
lhand -20.4715 18.0733
lfingers 7.12502
lthumb 5.88458 47.9716
rfemur -0.415114 1.67947 31.5313
rtibia 29.3724
rfoot -15.4773 -10.5866
rtoes -13.6538
lfemur -32.3138 -4.89219 -7.46553
ltibia 21.9776
lfoot -1.1215 3.23042
ltoes -10.7029
105
root 19.4439 17.5882 5.24514 -279.932 -81.9752 288.001
lowerback -1.45483 2.23861 5.14123
upperback -1.65171 2.90533 2.23023
thorax -0.742965 1.39098 -0.558538
lowerneck -13.5202 -4.29476 -7.21696
upperneck 8.6553 -4.43704 -0.0637082
head 4.9647 -2.43286 0.767694
rclavicle 1.54866e-014 5.7896e-015
rhumerus -26.5178 17.398 -83.6099
rradius 111.196
rwrist -9.43954
rhand -21.683 -29.128
rfingers 7.12502
rthumb 4.71487 -59.0555
lclavicle 1.54866e-014 5.7896e-015
lhumerus -28.6433 -22.7105 97.746
lradius 83.6077
lwrist -14.8226
lhand -20.5665 16.8022
lfingers 7.12502
lthumb 5.79286 46.703
rfemur -0.759477 1.02012 31.2864
rtibia 30.9991
rfoot -14.8192 -10.4591
rtoes -14.4129
lfemur -32.2794 -5.16516 -7.92529
ltibia 22.8643
lfoot -1.09225 2.38511
ltoes -8.89097
106
root 19.2784 17.5917 5.25917 -284.356 -81.8144 292.313
lowerback -1.41919 2.20865 5.09465
upperback -1.68626 2.87147 2.1706
thorax -0.799256 1.37338 -0.59664
lowerneck -13.3937 -4.25925 -7.28387
upperneck 8.81177 -4.3629 -0.279331
head 4.98797 -2.41773 0.718046
rclavicle 3.76759e-015 4.77083e-015
rhumerus -27.4581 16.8128 -84.4011
rradius 113.806
rwrist -8.55669
rhand -22.6572 -27.8731
rfingers 7.12502
rthumb 3.77411 -57.8194
lclavicle 3.76759e-015 4.77083e-015
lhumerus -28.7828 -23.8006 98.1322
lradius 84.9519
lwrist -15.8813
lhand -20.6328 15.5843
lfingers 7.12502
lthumb 5.72886 45.4868
rfemur -1.19037 0.308067 31.1133
rtibia 32.7662
rfoot -13.9602 -10.2766
rtoes -14.9527
lfemur -32.1658 -5.41176 -8.28017
ltibia 23.7294
lfoot -1.19325 1.58415
ltoes -7.12616
107
root 19.1143 17.5952 5.27383 -288.465 -81.5681 296.279
lowerback -1.35384 2.17346 5.0916
upperback -1.71968 2.8318 2.13396
thorax -0.870497 1.35196 -0.636485
lowerneck -13.271 -4.20868 -7.32898
upperneck 9.01316 -4.2686 -0.519553
head 5.0245 -2.395 0.658446
rclavicle 1.85429e-015 -9.44227e-016
rhumerus -28.2157 16.3603 -85.127
rradius 116.303
rwrist -7.79478
rhand -23.6116 -26.764
rfingers 7.12502
rthumb 2.85247 -56.7247
lclavicle 1.85429e-015 -9.44227e-016
lhumerus -28.7851 -24.9123 98.4955
lradius 86.2638
lwrist -16.7659
lhand -20.7283 14.4064
lfingers 7.12502
lthumb 5.63672 44.3114
rfemur -1.711 -0.433778 30.9649
rtibia 34.6678
rfoot -12.8673 -10.0648
rtoes -15.1598
lfemur -31.9622 -5.65075 -8.57116
ltibia 24.533
lfoot -1.37482 0.834513
ltoes -5.38904
108
root 18.9521 17.5986 5.28879 -292.271 -81.3043 299.916
lowerback -1.25177 2.13325 5.06381
upperback -1.75182 2.78821 2.10528
thorax -0.962761 1.3285 -0.655839
lowerneck -13.174 -4.14604 -7.33869
upperneck 9.25635 -4.15705 -0.795516
head 5.07654 -2.36651 0.582607
rclavicle 2.94791e-014 2.79789e-014
rhumerus -28.7617 16.0711 -85.7784
rradius 118.671
rwrist -7.11238
rhand -24.5624 -25.8545
rfingers 7.12502
rthumb 1.93424 -55.8254
lclavicle 2.94791e-014 2.79789e-014
lhumerus -28.6356 -26.0381 98.8227
lradius 87.5359
lwrist -17.5676
lhand -20.897 13.2786
lfingers 7.12502
lthumb 5.47382 43.1879
rfemur -2.32477 -1.19223 30.7758
rtibia 36.6845
rfoot -11.4838 -9.87158
rtoes -15.0291
lfemur -31.6635 -5.89808 -8.86235
ltibia 25.239
lfoot -1.59284 0.152881
ltoes -3.77047
109
root 18.7924 17.6019 5.30383 -295.837 -81.0725 303.295
lowerback -1.12687 2.092 4.96441
upperback -1.78065 2.74531 2.07151
thorax -1.06731 1.30626 -0.641396
lowerneck -13.0863 -4.0732 -7.31876
upperneck 9.51069 -4.03378 -1.08506
head 5.13275 -2.33295 0.498499
rclavicle -8.79933e-015 -1.99779e-014
rhumerus -29.0783 15.9578 -86.3436
rradius 120.89
rwrist -6.44259
rhand -25.5416 -25.1102
rfingers 7.12502
rthumb 0.988519 -55.0877
lclavicle -8.79933e-015 -1.99779e-014
lhumerus -28.3461 -27.175 99.1016
lradius 88.7804
lwrist -18.3647
lhand -21.1467 12.2221
lfingers 7.12502
lthumb 5.23266 42.1375
rfemur -3.03395 -1.9519 30.5047
rtibia 38.785
rfoot -9.75303 -9.74084
rtoes -14.6053
lfemur -31.2775 -6.14932 -9.20153
ltibia 25.8321
lfoot -1.83414 -0.467832
ltoes -2.30871
